<svg xmlns="http://www.w3.org/2000/svg" xmlns:xlink="http://www.w3.org/1999/xlink" width="872" height="342" viewBox="0 0 872 342">
<defs>
<path id="g0" d="M3.71 0.25Q2.55 0.25 1.88 -0.5Q1.21 -1.24 1.21 -2.54V-7.87H2.86V-2.87Q2.86 -2.06 3.24 -1.63Q3.62 -1.2 4.33 -1.2Q5.08 -1.2 5.55 -1.77Q6.03 -2.34 6.03 -3.29V-7.87H7.69V0H6.13V-1.21H6.07Q5.69 -0.55 5.1 -0.15Q4.51 0.25 3.71 0.25Z"/>
<path id="g1" d="M4.89 0.24Q3.53 0.24 2.59 -0.32Q1.65 -0.88 1.21 -1.95L2.61 -2.53Q2.88 -1.88 3.47 -1.52Q4.06 -1.17 4.86 -1.17Q5.48 -1.17 5.84 -1.41Q6.2 -1.65 6.2 -2.07V-2.13Q6.2 -2.51 5.91 -2.75Q5.61 -2.98 4.84 -3.18L3.74 -3.47Q2.75 -3.74 2.22 -4.31Q1.69 -4.88 1.69 -5.72V-5.74Q1.69 -6.83 2.5 -7.47Q3.3 -8.11 4.67 -8.11Q5.84 -8.11 6.61 -7.67Q7.38 -7.23 7.76 -6.34L6.36 -5.77Q5.92 -6.71 4.6 -6.71Q3.98 -6.71 3.63 -6.48Q3.28 -6.25 3.28 -5.85V-5.81Q3.28 -5.47 3.55 -5.25Q3.81 -5.04 4.43 -4.88L5.54 -4.58Q6.71 -4.27 7.25 -3.69Q7.79 -3.1 7.79 -2.15V-2.12Q7.79 -1.06 7 -0.41Q6.2 0.24 4.89 0.24Z"/>
<path id="g2" d="M3.78 0.25Q2.99 0.25 2.38 -0.07Q1.78 -0.39 1.44 -0.96Q1.09 -1.52 1.09 -2.26V-2.36Q1.09 -3.57 1.92 -4.29Q2.75 -5.01 4.12 -5.01Q4.73 -5.01 5.26 -4.88Q5.79 -4.75 6.21 -4.51V-3.38Q5.48 -3.84 4.48 -3.84Q3.69 -3.84 3.24 -3.47Q2.78 -3.1 2.78 -2.44V-2.35Q2.78 -1.73 3.17 -1.39Q3.56 -1.04 4.24 -1.04Q4.79 -1.04 5.19 -1.32Q5.6 -1.59 5.83 -2.08Q6.07 -2.57 6.07 -3.19V-5.06Q6.07 -5.86 5.65 -6.3Q5.24 -6.73 4.42 -6.73Q3.32 -6.73 2.46 -5.88L1.51 -6.89Q2.66 -8.11 4.52 -8.11Q6.04 -8.11 6.87 -7.31Q7.69 -6.52 7.69 -5.12V0H6.13V-1.09H6.07Q5.72 -0.46 5.14 -0.11Q4.56 0.25 3.78 0.25Z"/>
<path id="g3" d="M4.46 4.29Q3.26 4.29 2.38 3.96Q1.5 3.63 1.02 3.03Q0.53 2.43 0.53 1.61Q0.53 0.78 1.03 0.17Q1.53 -0.44 2.43 -0.7L2.76 0.03Q2.4 0.26 2.21 0.61Q2.01 0.95 2.01 1.39Q2.01 2.14 2.63 2.53Q3.25 2.92 4.47 2.92Q5.64 2.92 6.33 2.5Q7.01 2.08 7.01 1.36Q7.01 0.32 5.71 0.32H1.94V-0.21L3.47 -2.65L4.42 -2.5L3.88 -1H5.92Q7.16 -1 7.85 -0.4Q8.54 0.2 8.54 1.28Q8.54 2.21 8.04 2.88Q7.54 3.55 6.63 3.92Q5.71 4.29 4.46 4.29ZM4.53 -2.12Q3.6 -2.12 2.85 -2.51Q2.11 -2.9 1.68 -3.57Q1.24 -4.25 1.24 -5.08V-5.14Q1.24 -6.01 1.66 -6.69Q2.07 -7.36 2.8 -7.73Q3.54 -8.11 4.48 -8.11Q5.42 -8.11 6.16 -7.72Q6.91 -7.33 7.34 -6.66Q7.77 -5.98 7.77 -5.14V-5.08Q7.77 -4.21 7.36 -3.55Q6.94 -2.88 6.21 -2.5Q5.47 -2.12 4.53 -2.12ZM4.51 -3.44Q5.28 -3.44 5.76 -3.88Q6.24 -4.33 6.24 -5.04V-5.14Q6.24 -5.86 5.76 -6.3Q5.28 -6.74 4.51 -6.74Q3.73 -6.74 3.25 -6.3Q2.77 -5.86 2.77 -5.14V-5.04Q2.77 -4.33 3.25 -3.88Q3.73 -3.44 4.51 -3.44ZM6.26 -7.13 5.67 -7.46Q5.92 -8.5 6.6 -9.05Q7.28 -9.6 8.32 -9.6V-7.97Q6.94 -7.97 6.26 -7.13Z"/>
<path id="g4" d="M4.72 0.25Q3.56 0.25 2.69 -0.26Q1.82 -0.77 1.35 -1.69Q0.87 -2.6 0.87 -3.83V-4.08Q0.87 -5.29 1.35 -6.2Q1.82 -7.1 2.68 -7.61Q3.54 -8.11 4.68 -8.11Q5.7 -8.11 6.46 -7.67Q7.22 -7.24 7.64 -6.44Q8.06 -5.64 8.06 -4.58Q8.06 -4.27 8.04 -4.01Q8.03 -3.74 7.98 -3.49H1.83V-4.67H6.47Q6.47 -5.61 5.99 -6.16Q5.5 -6.71 4.67 -6.71Q3.67 -6.71 3.08 -6Q2.49 -5.29 2.49 -4.04V-3.87Q2.49 -2.63 3.1 -1.91Q3.71 -1.19 4.75 -1.19Q6.02 -1.19 6.64 -2.35L8.01 -1.62Q7.53 -0.7 6.7 -0.23Q5.87 0.25 4.72 0.25Z"/>
<path id="g5" d="M4.49 -5.45Q3.94 -5.45 3.55 -5.83Q3.17 -6.22 3.17 -6.79Q3.17 -7.34 3.55 -7.72Q3.94 -8.11 4.49 -8.11Q5.07 -8.11 5.45 -7.72Q5.83 -7.34 5.83 -6.79Q5.83 -6.22 5.45 -5.83Q5.07 -5.45 4.49 -5.45ZM4.49 0.22Q3.94 0.22 3.55 -0.16Q3.17 -0.54 3.17 -1.11Q3.17 -1.66 3.55 -2.04Q3.94 -2.43 4.49 -2.43Q5.07 -2.43 5.45 -2.04Q5.83 -1.66 5.83 -1.11Q5.83 -0.54 5.45 -0.16Q5.07 0.22 4.49 0.22Z"/>
<path id="g6" d="M5.05 0.23Q3.92 0.23 3.07 -0.28Q2.21 -0.79 1.74 -1.7Q1.27 -2.62 1.27 -3.83V-4.03Q1.27 -5.24 1.73 -6.15Q2.19 -7.06 3.02 -7.57Q3.85 -8.08 4.95 -8.08Q6.04 -8.08 6.78 -7.6Q7.52 -7.11 7.99 -6.19L6.85 -5.55Q6.55 -6.17 6.09 -6.5Q5.62 -6.83 4.95 -6.83Q3.88 -6.83 3.27 -6.09Q2.65 -5.35 2.65 -4.08V-3.76Q2.65 -2.52 3.3 -1.78Q3.95 -1.03 5.04 -1.03Q5.71 -1.03 6.21 -1.35Q6.71 -1.66 7.09 -2.32L8.18 -1.62Q7.84 -1.02 7.37 -0.6Q6.89 -0.19 6.31 0.02Q5.73 0.23 5.05 0.23Z"/>
<path id="g7" d="M0.85 -3.82V-4.03Q0.85 -5.24 1.31 -6.16Q1.77 -7.07 2.59 -7.58Q3.41 -8.09 4.5 -8.09Q5.59 -8.09 6.41 -7.58Q7.23 -7.07 7.69 -6.16Q8.14 -5.24 8.14 -4.03V-3.82Q8.14 -2.62 7.69 -1.7Q7.23 -0.78 6.41 -0.27Q5.59 0.24 4.5 0.24Q3.41 0.24 2.59 -0.27Q1.77 -0.78 1.31 -1.7Q0.85 -2.62 0.85 -3.82ZM6.75 -3.85V-4Q6.75 -5.33 6.15 -6.08Q5.55 -6.83 4.5 -6.83Q3.46 -6.83 2.85 -6.08Q2.25 -5.33 2.25 -4V-3.85Q2.25 -2.53 2.85 -1.78Q3.46 -1.02 4.5 -1.02Q5.55 -1.02 6.15 -1.78Q6.75 -2.53 6.75 -3.85Z"/>
<path id="g8" d="M2.78 -0.45V-7.85H3.98V-6.22H4.05Q4.41 -7.12 5.07 -7.6Q5.72 -8.09 6.56 -8.09Q7.17 -8.09 7.63 -7.86Q8.09 -7.62 8.5 -7.1L7.52 -6.01Q7.18 -6.43 6.82 -6.61Q6.46 -6.79 5.99 -6.79Q5.11 -6.79 4.61 -6.07Q4.1 -5.35 4.1 -4.09V-0.45ZM0.9 0V-1.1H6.65V0ZM1.05 -6.75V-7.85H3.42V-6.75Z"/>
<path id="g9" d="M4.9 -8.09Q5.85 -8.09 6.56 -7.59Q7.27 -7.08 7.67 -6.17Q8.07 -5.26 8.07 -4.06V-3.79Q8.07 -2.59 7.69 -1.68Q7.3 -0.77 6.62 -0.26Q5.92 0.24 5 0.24Q4.18 0.24 3.57 -0.13Q2.96 -0.5 2.55 -1.16H2.5V3.1H1.14V-7.85H2.4V-6.56H2.45Q2.81 -7.28 3.45 -7.69Q4.08 -8.09 4.9 -8.09ZM4.6 -6.86Q3.62 -6.86 3.04 -6.09Q2.45 -5.31 2.45 -4.01V-3.83Q2.45 -2.53 3.04 -1.76Q3.62 -0.99 4.6 -0.99Q5.57 -0.99 6.12 -1.74Q6.67 -2.5 6.67 -3.82V-4.03Q6.67 -5.35 6.12 -6.11Q5.56 -6.86 4.6 -6.86Z"/>
<path id="g10" d="M3.94 0.24Q3.13 0.24 2.52 -0.08Q1.91 -0.4 1.56 -0.96Q1.21 -1.53 1.21 -2.27V-2.38Q1.21 -3.58 2.04 -4.3Q2.86 -5.02 4.21 -5.02Q4.83 -5.02 5.38 -4.88Q5.92 -4.73 6.34 -4.48V-3.43Q5.55 -3.94 4.45 -3.94Q3.6 -3.94 3.1 -3.54Q2.59 -3.13 2.59 -2.43V-2.35Q2.59 -1.69 3.03 -1.31Q3.46 -0.93 4.18 -0.93Q4.79 -0.93 5.25 -1.23Q5.71 -1.52 5.97 -2.05Q6.22 -2.57 6.22 -3.24V-5.12Q6.22 -5.95 5.79 -6.42Q5.36 -6.89 4.49 -6.89Q3.34 -6.89 2.47 -6.01L1.62 -6.91Q2.72 -8.09 4.5 -8.09Q5.96 -8.09 6.75 -7.3Q7.55 -6.5 7.55 -5.16V0H6.29V-1.14H6.23Q5.89 -0.49 5.31 -0.13Q4.73 0.24 3.94 0.24Z"/>
<path id="g11" d="M7.67 -11.89V-10.73H4.02V0.76H7.67V1.91H2.64V-11.89Z"/>
<path id="g12" d="M1.16 -4V-5.39H7.84V-4Z"/>
<path id="g13" d="M1.39 0V-10.95H2.75V-6.79H2.8Q3.73 -8.09 5.3 -8.09Q6.49 -8.09 7.16 -7.31Q7.84 -6.53 7.84 -5.16V0H6.48V-4.95Q6.48 -6.88 4.82 -6.88Q3.88 -6.88 3.31 -6.24Q2.75 -5.6 2.75 -4.54V0Z"/>
<path id="g14" d="M1.33 1.91V0.76H4.98V-10.73H1.33V-11.89H6.36V1.91Z"/>
<path id="g15" d="M6.22 -12.03Q6.57 -12.03 6.91 -12.01Q7.25 -11.98 7.6 -11.95V-10.84Q7.33 -10.88 7.06 -10.9Q6.79 -10.91 6.55 -10.91Q5.56 -10.91 5.1 -10.71Q4.63 -10.5 4.63 -10.06Q4.63 -9.86 4.76 -9.61Q4.88 -9.37 5.14 -9.04L5.33 -8.81Q5.71 -8.34 5.87 -7.97Q6.03 -7.6 6.03 -7.21Q6.03 -6.58 5.59 -6.18Q5.16 -5.77 4.33 -5.65L2.17 -5.32V-4.67L4.33 -4.34Q5.16 -4.22 5.59 -3.82Q6.03 -3.41 6.03 -2.77Q6.03 -2.39 5.87 -2.02Q5.71 -1.65 5.33 -1.18L5.14 -0.94Q4.88 -0.62 4.76 -0.38Q4.63 -0.14 4.63 0.07Q4.63 0.5 5.1 0.71Q5.56 0.92 6.55 0.92Q6.79 0.92 7.06 0.9Q7.33 0.89 7.6 0.85V1.96Q7.25 1.99 6.91 2.02Q6.57 2.04 6.22 2.04Q4.72 2.04 3.99 1.6Q3.27 1.16 3.27 0.25Q3.27 -0.12 3.4 -0.45Q3.53 -0.79 3.82 -1.16L4.21 -1.68Q4.47 -2.01 4.57 -2.23Q4.68 -2.46 4.68 -2.67Q4.68 -3.25 3.95 -3.38L0.97 -3.89V-6.1L3.95 -6.61Q4.68 -6.74 4.68 -7.32Q4.68 -7.54 4.57 -7.76Q4.47 -7.99 4.21 -8.31L3.82 -8.83Q3.53 -9.2 3.4 -9.54Q3.27 -9.87 3.27 -10.24Q3.27 -11.15 3.99 -11.59Q4.72 -12.03 6.22 -12.03Z"/>
<path id="g16" d="M1.39 0V-7.85H2.65V-6.65H2.71Q3.16 -7.35 3.81 -7.72Q4.46 -8.09 5.3 -8.09Q6.52 -8.09 7.18 -7.3Q7.84 -6.5 7.84 -5.16V0H6.48V-4.95Q6.48 -5.9 6.06 -6.39Q5.64 -6.88 4.82 -6.88Q3.89 -6.88 3.32 -6.25Q2.75 -5.62 2.75 -4.51V0Z"/>
<path id="g17" d="M3.79 0 0.82 -7.85H2.29L3.97 -3.24L4.5 -1.47H4.55L5.08 -3.24L6.72 -7.85H8.17L5.21 0Z"/>
<path id="g18" d="M4.72 0.24Q3.59 0.24 2.75 -0.27Q1.91 -0.77 1.44 -1.68Q0.97 -2.59 0.97 -3.82V-4.1Q0.97 -5.3 1.44 -6.2Q1.9 -7.09 2.73 -7.59Q3.56 -8.09 4.67 -8.09Q5.67 -8.09 6.41 -7.66Q7.15 -7.23 7.56 -6.45Q7.96 -5.66 7.96 -4.61Q7.96 -4.33 7.95 -4.06Q7.93 -3.79 7.89 -3.54H1.82V-4.63H6.61V-4.66Q6.61 -5.68 6.09 -6.29Q5.56 -6.89 4.66 -6.89Q3.59 -6.89 2.96 -6.14Q2.32 -5.38 2.32 -4.06V-3.85Q2.32 -2.53 2.98 -1.76Q3.64 -0.99 4.76 -0.99Q6.12 -0.99 6.82 -2.21L7.91 -1.51Q7.41 -0.64 6.62 -0.2Q5.82 0.24 4.72 0.24Z"/>
<path id="g19" d="M5.89 0.24Q4.53 0.24 3.77 -0.52Q3.01 -1.28 3.01 -2.64V-9.95H4.38V-2.75Q4.38 -1.87 4.75 -1.45Q5.12 -1.03 5.89 -1.03Q6.71 -1.03 7.36 -1.69L8.13 -0.67Q7.21 0.24 5.89 0.24ZM0.87 -6.68V-7.85H7.66V-6.68Z"/>
<path id="g20" d="M3.71 2.62 2.83 2.03 4.62 -0.37 4.61 0.04Q4.27 0.04 3.99 -0.09Q3.71 -0.23 3.55 -0.49Q3.38 -0.75 3.38 -1.1Q3.38 -1.59 3.72 -1.93Q4.05 -2.27 4.58 -2.27Q5.12 -2.27 5.47 -1.94Q5.82 -1.6 5.82 -0.98Q5.82 -0.62 5.67 -0.27Q5.52 0.09 5.24 0.47Z"/>
<path id="g21" d="M5.87 0.24Q4.62 0.24 3.9 -0.49Q3.19 -1.22 3.19 -2.5V-10.95H4.54V-2.65Q4.54 -1.03 5.95 -1.03Q6.34 -1.03 6.69 -1.19Q7.03 -1.34 7.41 -1.69L8.19 -0.66Q7.7 -0.2 7.12 0.02Q6.55 0.24 5.87 0.24ZM0.87 -9.76V-10.95H3.9V-9.76Z"/>
<path id="g22" d="M4.18 -0.45V-7.85H5.52V-0.45ZM1.52 0V-1.11H8.08V0ZM1.67 -6.74V-7.85H5.12V-6.74ZM4.66 -9.58Q4.18 -9.58 3.85 -9.92Q3.51 -10.26 3.51 -10.73Q3.51 -11.22 3.85 -11.54Q4.18 -11.86 4.66 -11.86Q5.14 -11.86 5.47 -11.54Q5.79 -11.21 5.79 -10.72Q5.79 -10.26 5.47 -9.92Q5.14 -9.58 4.66 -9.58Z"/>
<path id="g23" d="M4.16 0.23Q3.21 0.23 2.48 -0.27Q1.75 -0.78 1.34 -1.69Q0.93 -2.6 0.93 -3.8V-4.06Q0.93 -5.28 1.33 -6.18Q1.72 -7.09 2.44 -7.59Q3.16 -8.08 4.1 -8.08Q4.9 -8.08 5.49 -7.72Q6.08 -7.36 6.45 -6.71H6.5V-10.95H7.86V0H6.6V-1.29H6.55Q6.19 -0.58 5.58 -0.17Q4.96 0.23 4.16 0.23ZM4.44 -1Q5.4 -1 5.97 -1.77Q6.55 -2.54 6.55 -3.84V-4.02Q6.55 -5.32 5.98 -6.09Q5.41 -6.85 4.44 -6.85Q3.46 -6.85 2.89 -6.1Q2.32 -5.35 2.32 -4.03V-3.83Q2.32 -2.52 2.89 -1.76Q3.46 -1 4.44 -1Z"/>
<path id="g24" d="M4.9 0.24Q4.08 0.24 3.45 -0.16Q2.81 -0.57 2.45 -1.29H2.4V0H1.14V-10.95H2.5V-6.69H2.55Q2.96 -7.35 3.57 -7.72Q4.18 -8.09 5 -8.09Q5.92 -8.09 6.62 -7.59Q7.3 -7.09 7.69 -6.18Q8.07 -5.27 8.07 -4.06V-3.79Q8.07 -2.59 7.67 -1.68Q7.27 -0.77 6.56 -0.27Q5.85 0.24 4.9 0.24ZM4.6 -0.99Q5.56 -0.99 6.12 -1.75Q6.67 -2.5 6.67 -3.82V-4.03Q6.67 -5.35 6.12 -6.11Q5.57 -6.86 4.6 -6.86Q3.62 -6.86 3.04 -6.09Q2.45 -5.33 2.45 -4.02V-3.84Q2.45 -2.54 3.04 -1.77Q3.62 -0.99 4.6 -0.99Z"/>
<path id="g25" d="M2.38 3.31Q1.29 3.31 0.47 2.63L1.16 1.57Q1.75 2.05 2.34 2.05Q2.81 2.05 3.11 1.82Q3.4 1.58 3.6 1.04L4.3 -0.9H4.51L5.2 -3.24L6.84 -7.85H8.29L4.8 1.38Q4.41 2.4 3.84 2.86Q3.27 3.31 2.38 3.31ZM4.21 0.71 0.93 -7.85H2.39L4.07 -3.24L4.62 -1.47H4.84Z"/>
<path id="g26" d="M2.77 2.05Q2.43 2.05 2.09 2.03Q1.75 2.01 1.4 1.97V0.87Q1.67 0.9 1.94 0.92Q2.21 0.94 2.45 0.94Q3.44 0.94 3.9 0.73Q4.37 0.52 4.37 0.08Q4.37 -0.12 4.25 -0.36Q4.12 -0.61 3.86 -0.93L3.67 -1.16Q3.29 -1.64 3.13 -2.01Q2.97 -2.38 2.97 -2.76Q2.97 -3.4 3.4 -3.8Q3.84 -4.21 4.67 -4.33L6.83 -4.66V-5.3L4.67 -5.63Q3.84 -5.76 3.4 -6.16Q2.97 -6.56 2.97 -7.2Q2.97 -7.58 3.13 -7.95Q3.29 -8.32 3.67 -8.8L3.86 -9.03Q4.12 -9.35 4.25 -9.6Q4.37 -9.84 4.37 -10.04Q4.37 -10.48 3.9 -10.69Q3.44 -10.9 2.45 -10.9Q2.21 -10.9 1.94 -10.88Q1.67 -10.87 1.4 -10.83V-11.93Q1.75 -11.97 2.09 -11.99Q2.43 -12.01 2.77 -12.01Q4.28 -12.01 5.01 -11.58Q5.73 -11.14 5.73 -10.22Q5.73 -9.86 5.6 -9.52Q5.47 -9.19 5.18 -8.81L4.79 -8.29Q4.53 -7.97 4.43 -7.75Q4.32 -7.52 4.32 -7.3Q4.32 -6.73 5.05 -6.6L8.03 -6.08V-3.88L5.05 -3.36Q4.32 -3.23 4.32 -2.65Q4.32 -2.44 4.43 -2.22Q4.53 -1.99 4.79 -1.67L5.18 -1.15Q5.47 -0.77 5.6 -0.44Q5.73 -0.1 5.73 0.26Q5.73 1.18 5.01 1.62Q4.28 2.05 2.77 2.05Z"/>
<path id="g27" d="M4.49 0.22Q3.97 0.22 3.62 -0.14Q3.26 -0.49 3.26 -1.01Q3.26 -1.52 3.62 -1.88Q3.98 -2.23 4.49 -2.23Q5.02 -2.23 5.38 -1.88Q5.73 -1.52 5.73 -1.01Q5.73 -0.49 5.38 -0.14Q5.02 0.22 4.49 0.22Z"/>
<path id="g28" d="M4.9 0.24Q3.63 0.24 2.7 -0.43Q1.76 -1.09 1.26 -2.32Q0.75 -3.55 0.75 -5.23V-5.51Q0.75 -7.21 1.25 -8.44Q1.74 -9.67 2.66 -10.32Q3.58 -10.98 4.85 -10.98Q6.1 -10.98 6.98 -10.3Q7.86 -9.63 8.28 -8.34L6.99 -7.84Q6.67 -8.8 6.15 -9.23Q5.63 -9.66 4.82 -9.66Q3.55 -9.66 2.86 -8.59Q2.17 -7.53 2.17 -5.55V-5.19Q2.17 -3.23 2.89 -2.15Q3.61 -1.08 4.92 -1.08Q6.55 -1.08 7.12 -2.89L8.42 -2.41Q8.01 -1.12 7.11 -0.44Q6.2 0.24 4.9 0.24Z"/>
<path id="g29" d="M3.86 0.24Q2.69 0.24 1.99 -0.51Q1.29 -1.27 1.29 -2.59V-7.85H2.65V-2.83Q2.65 -1.93 3.07 -1.45Q3.49 -0.97 4.28 -0.97Q5.13 -0.97 5.68 -1.61Q6.23 -2.25 6.23 -3.29V-7.85H7.59V0H6.32V-1.21H6.27Q5.89 -0.55 5.28 -0.15Q4.68 0.24 3.86 0.24Z"/>
<path id="g30" d="M0.77 0V-7.85H2.01V-6.84H2.06Q2.27 -7.44 2.66 -7.77Q3.05 -8.09 3.6 -8.09Q4.22 -8.09 4.6 -7.64Q4.97 -7.19 5.02 -6.38L4.91 -6.45Q5.12 -7.24 5.58 -7.66Q6.05 -8.09 6.67 -8.09Q8.28 -8.09 8.28 -5.7V0H6.94V-5.7Q6.94 -6.34 6.75 -6.62Q6.56 -6.88 6.19 -6.88Q5.76 -6.88 5.47 -6.49Q5.19 -6.09 5.19 -5.34V0H3.85V-5.69Q3.85 -6.34 3.66 -6.61Q3.47 -6.88 3.11 -6.88Q2.68 -6.88 2.39 -6.49Q2.11 -6.09 2.11 -5.34V0Z"/>
<path id="g31" d="M4.91 0.24Q3.61 0.24 2.68 -0.3Q1.75 -0.85 1.26 -1.89L2.42 -2.44Q2.74 -1.74 3.38 -1.36Q4.03 -0.97 4.88 -0.97Q5.58 -0.97 5.98 -1.25Q6.39 -1.53 6.39 -2.01V-2.08Q6.39 -2.53 6.06 -2.79Q5.73 -3.06 4.93 -3.27L3.84 -3.55Q2.85 -3.82 2.32 -4.37Q1.79 -4.93 1.79 -5.77V-5.78Q1.79 -6.85 2.57 -7.47Q3.34 -8.09 4.67 -8.09Q5.8 -8.09 6.55 -7.68Q7.3 -7.27 7.71 -6.42L6.55 -5.87Q6.04 -6.88 4.63 -6.88Q3.93 -6.88 3.54 -6.62Q3.14 -6.35 3.14 -5.88V-5.83Q3.14 -5.44 3.44 -5.19Q3.73 -4.94 4.39 -4.77L5.48 -4.48Q6.65 -4.18 7.2 -3.61Q7.74 -3.04 7.74 -2.11V-2.08Q7.74 -1.04 6.96 -0.4Q6.19 0.24 4.91 0.24Z"/>
<path id="g32" d="M4.45 4.29Q3.28 4.29 2.43 3.97Q1.57 3.65 1.11 3.06Q0.65 2.47 0.65 1.66Q0.65 0.83 1.12 0.22Q1.6 -0.39 2.46 -0.68L2.79 -0.03Q2.35 0.2 2.11 0.6Q1.87 0.99 1.87 1.48Q1.87 2.28 2.52 2.68Q3.17 3.09 4.45 3.09Q5.68 3.09 6.41 2.62Q7.14 2.16 7.14 1.36Q7.14 0.21 5.69 0.21H2.02V-0.22L3.52 -2.64L4.36 -2.48L3.76 -0.93H5.8Q7.04 -0.93 7.74 -0.33Q8.43 0.28 8.43 1.35Q8.43 2.25 7.94 2.91Q7.46 3.57 6.56 3.93Q5.67 4.29 4.45 4.29ZM4.51 -2.15Q3.62 -2.15 2.91 -2.54Q2.19 -2.92 1.77 -3.59Q1.36 -4.26 1.36 -5.08V-5.16Q1.36 -6.01 1.76 -6.68Q2.17 -7.34 2.88 -7.72Q3.59 -8.09 4.51 -8.09Q5.4 -8.09 6.11 -7.7Q6.83 -7.31 7.24 -6.65Q7.66 -5.98 7.66 -5.16V-5.08Q7.66 -4.23 7.25 -3.57Q6.85 -2.91 6.13 -2.53Q5.42 -2.15 4.51 -2.15ZM4.51 -3.26Q5.33 -3.26 5.85 -3.76Q6.37 -4.26 6.37 -5.03V-5.15Q6.37 -5.93 5.85 -6.43Q5.33 -6.92 4.51 -6.92Q3.69 -6.92 3.17 -6.43Q2.65 -5.93 2.65 -5.15V-5.03Q2.65 -4.26 3.17 -3.76Q3.69 -3.26 4.51 -3.26ZM6.25 -7.2 5.72 -7.47Q5.98 -8.49 6.62 -9.03Q7.26 -9.57 8.21 -9.57V-8.07Q6.9 -8.07 6.25 -7.2Z"/>
<path id="g33" d="M0.82 1.32 6.76 -10.95H8.17L2.23 1.32Z"/>
<path id="g34" d="M5.07 -8.11Q5.99 -8.11 6.69 -7.6Q7.38 -7.09 7.77 -6.17Q8.15 -5.26 8.15 -4.04V-3.82Q8.15 -2.6 7.78 -1.68Q7.4 -0.77 6.73 -0.26Q6.05 0.25 5.14 0.25Q4.36 0.25 3.76 -0.12Q3.17 -0.48 2.77 -1.14H2.72V3.08H1.06V-7.87H2.62V-6.61H2.69Q3.04 -7.32 3.66 -7.71Q4.28 -8.11 5.07 -8.11ZM4.6 -6.67Q3.72 -6.67 3.19 -5.94Q2.66 -5.22 2.66 -4V-3.85Q2.66 -2.63 3.19 -1.92Q3.72 -1.2 4.6 -1.2Q5.47 -1.2 5.97 -1.9Q6.46 -2.59 6.46 -3.83V-4.03Q6.46 -5.26 5.97 -5.97Q5.47 -6.67 4.6 -6.67Z"/>
<path id="g35" d="M0.77 -3.84V-4.03Q0.77 -5.23 1.24 -6.16Q1.71 -7.08 2.55 -7.59Q3.39 -8.11 4.5 -8.11Q5.61 -8.11 6.45 -7.59Q7.29 -7.08 7.76 -6.16Q8.23 -5.23 8.23 -4.03V-3.84Q8.23 -2.63 7.76 -1.71Q7.29 -0.79 6.45 -0.27Q5.61 0.25 4.5 0.25Q3.39 0.25 2.55 -0.27Q1.71 -0.79 1.24 -1.71Q0.77 -2.63 0.77 -3.84ZM6.55 -3.86V-4Q6.55 -5.21 6 -5.91Q5.45 -6.61 4.5 -6.61Q3.55 -6.61 3 -5.91Q2.44 -5.21 2.44 -4V-3.86Q2.44 -2.66 3 -1.96Q3.55 -1.26 4.5 -1.26Q5.45 -1.26 6 -1.96Q6.55 -2.66 6.55 -3.86Z"/>
<path id="g36" d="M4.05 -0.5V-7.87H5.68V-0.5ZM1.43 0V-1.3H8.17V0ZM1.58 -6.56V-7.87H5.31V-6.56ZM4.66 -9.5Q4.14 -9.5 3.77 -9.87Q3.4 -10.24 3.4 -10.75Q3.4 -11.29 3.77 -11.64Q4.14 -11.98 4.66 -11.98Q5.2 -11.98 5.55 -11.64Q5.9 -11.29 5.9 -10.75Q5.9 -10.24 5.55 -9.87Q5.2 -9.5 4.66 -9.5Z"/>
<path id="g37" d="M5.89 0.25Q4.45 0.25 3.66 -0.55Q2.86 -1.35 2.86 -2.79V-9.95H4.54V-2.91Q4.54 -2.08 4.89 -1.68Q5.23 -1.28 5.96 -1.28Q6.71 -1.28 7.34 -1.9L8.21 -0.66Q7.26 0.25 5.89 0.25ZM0.82 -6.52V-7.87H7.75V-6.52Z"/>
<path id="g38" d="M1.27 0V-7.87H2.83V-6.67H2.89Q3.34 -7.36 3.99 -7.74Q4.63 -8.11 5.47 -8.11Q6.64 -8.11 7.29 -7.33Q7.94 -6.55 7.94 -5.24V0H6.28V-4.93Q6.28 -5.78 5.9 -6.23Q5.53 -6.67 4.79 -6.67Q3.96 -6.67 3.45 -6.11Q2.93 -5.54 2.93 -4.54V0Z"/>
<path id="g39" d="M5.89 0.25Q4.55 0.25 3.79 -0.52Q3.03 -1.29 3.03 -2.65V-10.95H4.69V-2.8Q4.69 -1.28 6.01 -1.28Q6.39 -1.28 6.71 -1.42Q7.02 -1.57 7.37 -1.89L8.29 -0.67Q7.79 -0.2 7.2 0.02Q6.61 0.25 5.89 0.25ZM0.76 -9.58V-10.95H4.08V-9.58Z"/>
<path id="g40" d="M2.59 -0.58V-7.87H4.03V-6.18H4.11Q4.47 -7.11 5.12 -7.61Q5.77 -8.11 6.63 -8.11Q7.24 -8.11 7.7 -7.87Q8.16 -7.63 8.59 -7.11L7.48 -5.83Q7.14 -6.23 6.8 -6.4Q6.46 -6.57 6.01 -6.57Q5.16 -6.57 4.68 -5.91Q4.21 -5.26 4.21 -4.08V-0.58ZM0.81 0V-1.3H6.76V0ZM0.96 -6.56V-7.87H3.36V-6.56Z"/>
<path id="g41" d="M0.64 0V-7.87H2.1V-6.83H2.16Q2.38 -7.45 2.77 -7.78Q3.17 -8.11 3.72 -8.11Q4.34 -8.11 4.72 -7.65Q5.09 -7.2 5.14 -6.37L5.02 -6.42Q5.23 -7.23 5.7 -7.67Q6.17 -8.11 6.79 -8.11Q8.4 -8.11 8.4 -5.68V0H6.83V-5.59Q6.83 -6.18 6.67 -6.43Q6.51 -6.67 6.19 -6.67Q5.8 -6.67 5.55 -6.31Q5.3 -5.96 5.3 -5.27V0H3.73V-5.58Q3.73 -6.17 3.57 -6.42Q3.4 -6.67 3.09 -6.67Q2.7 -6.67 2.45 -6.31Q2.21 -5.96 2.21 -5.27V0Z"/>
<path id="g42" d="M1.2 0V-10.74H4.51Q5.56 -10.74 6.32 -10.35Q7.09 -9.96 7.51 -9.25Q7.93 -8.54 7.93 -7.57V-7.42Q7.93 -6.46 7.51 -5.75Q7.09 -5.04 6.32 -4.65Q5.55 -4.26 4.51 -4.26H1.98V-5.5H4.48Q5.44 -5.5 5.98 -6Q6.52 -6.5 6.52 -7.36V-7.59Q6.52 -8.46 5.98 -8.95Q5.44 -9.45 4.48 -9.45H2.58V0ZM7.01 0 4.05 -4.82H5.58L8.59 0Z"/>
<path id="g43" d="M6.31 0 2.62 -4.21V-4.25L6.14 -7.85H7.89L3.89 -3.83V-4.67L8.08 0ZM1.3 0V-10.95H2.67V0Z"/>
<path id="g44" d="M2.97 0V-8.45Q2.97 -9.73 3.71 -10.46Q4.45 -11.19 5.75 -11.19Q6.52 -11.19 7.14 -10.98Q7.75 -10.77 8.36 -10.3L7.63 -9.33Q7.18 -9.68 6.75 -9.84Q6.31 -9.99 5.78 -9.99Q5.02 -9.99 4.66 -9.59Q4.29 -9.2 4.29 -8.37V-7.3L4.32 -7.02V0ZM1.02 -6.39V-7.56H7.98V-6.39Z"/>
<path id="g45" d="M0.65 0V-10.74H2L3.84 -6.64L4.48 -4.99H4.52L5.16 -6.64L7 -10.74H8.35V0H7.03V-5.66L7.18 -8.45H7.13L4.99 -3.44H4.01L1.87 -8.45H1.82L1.97 -5.66V0Z"/>
<path id="g46" d="M1.93 0 0.24 -7.85H1.52L2.49 -2.39L2.62 -1.51H2.66L2.8 -2.39L3.84 -6.96H5.18L6.23 -2.42L6.37 -1.51H6.41L6.54 -2.42L7.5 -7.85H8.76L7.06 0H5.7L4.68 -4.6L4.52 -5.56H4.48L4.32 -4.6L3.3 0Z"/>
<path id="g47" d="M6.48 0 4.02 -3.69 3.88 -3.76 1.11 -7.85H2.64L4.91 -4.44L5.05 -4.37L8.01 0ZM0.99 0 3.97 -4.31 4.08 -4.4 6.42 -7.85H7.89L5.06 -3.75L4.92 -3.62L2.46 0Z"/>
</defs>
<g transform="translate(2, 2)">
<rect x="0" y="0" width="868" height="338" rx="13" ry="13" fill="#262626" stroke="#ABABAB" stroke-width="3"/>
<circle cx="27" cy="25" r="7" fill="#FF5F57"/><circle cx="49" cy="25" r="7" fill="#FEBC2E"/><circle cx="71" cy="25" r="7" fill="#28C840"/>
<path d="M3.65 0V-9.96H5.35V0ZM0.73 -9.13V-10.74H8.27V-9.13Z" fill="#FFFFFF" fill-opacity="0.65" transform="translate(400.4, 30) scale(0.933333)"/><path d="M4.72 0.25Q3.56 0.25 2.69 -0.26Q1.82 -0.77 1.35 -1.69Q0.87 -2.6 0.87 -3.83V-4.08Q0.87 -5.29 1.35 -6.2Q1.82 -7.1 2.68 -7.61Q3.54 -8.11 4.68 -8.11Q5.7 -8.11 6.46 -7.67Q7.22 -7.24 7.64 -6.44Q8.06 -5.64 8.06 -4.58Q8.06 -4.27 8.04 -4.01Q8.03 -3.74 7.98 -3.49H1.83V-4.67H6.47Q6.47 -5.61 5.99 -6.16Q5.5 -6.71 4.67 -6.71Q3.67 -6.71 3.08 -6Q2.49 -5.29 2.49 -4.04V-3.87Q2.49 -2.63 3.1 -1.91Q3.71 -1.19 4.75 -1.19Q6.02 -1.19 6.64 -2.35L8.01 -1.62Q7.53 -0.7 6.7 -0.23Q5.87 0.25 4.72 0.25Z" fill="#FFFFFF" fill-opacity="0.65" transform="translate(408.8, 30) scale(0.933333)"/><path d="M2.59 -0.58V-7.87H4.03V-6.18H4.11Q4.47 -7.11 5.12 -7.61Q5.77 -8.11 6.63 -8.11Q7.24 -8.11 7.7 -7.87Q8.16 -7.63 8.59 -7.11L7.48 -5.83Q7.14 -6.23 6.8 -6.4Q6.46 -6.57 6.01 -6.57Q5.16 -6.57 4.68 -5.91Q4.21 -5.26 4.21 -4.08V-0.58ZM0.81 0V-1.3H6.76V0ZM0.96 -6.56V-7.87H3.36V-6.56Z" fill="#FFFFFF" fill-opacity="0.65" transform="translate(417.2, 30) scale(0.933333)"/><path d="M0.64 0V-7.87H2.1V-6.83H2.16Q2.38 -7.45 2.77 -7.78Q3.17 -8.11 3.72 -8.11Q4.34 -8.11 4.72 -7.65Q5.09 -7.2 5.14 -6.37L5.02 -6.42Q5.23 -7.23 5.7 -7.67Q6.17 -8.11 6.79 -8.11Q8.4 -8.11 8.4 -5.68V0H6.83V-5.59Q6.83 -6.18 6.67 -6.43Q6.51 -6.67 6.19 -6.67Q5.8 -6.67 5.55 -6.31Q5.3 -5.96 5.3 -5.27V0H3.73V-5.58Q3.73 -6.17 3.57 -6.42Q3.4 -6.67 3.09 -6.67Q2.7 -6.67 2.45 -6.31Q2.21 -5.96 2.21 -5.27V0Z" fill="#FFFFFF" fill-opacity="0.65" transform="translate(425.6, 30) scale(0.933333)"/><path d="M4.05 -0.5V-7.87H5.68V-0.5ZM1.43 0V-1.3H8.17V0ZM1.58 -6.56V-7.87H5.31V-6.56ZM4.66 -9.5Q4.14 -9.5 3.77 -9.87Q3.4 -10.24 3.4 -10.75Q3.4 -11.29 3.77 -11.64Q4.14 -11.98 4.66 -11.98Q5.2 -11.98 5.55 -11.64Q5.9 -11.29 5.9 -10.75Q5.9 -10.24 5.55 -9.87Q5.2 -9.5 4.66 -9.5Z" fill="#FFFFFF" fill-opacity="0.65" transform="translate(434, 30) scale(0.933333)"/><path d="M1.27 0V-7.87H2.83V-6.67H2.89Q3.34 -7.36 3.99 -7.74Q4.63 -8.11 5.47 -8.11Q6.64 -8.11 7.29 -7.33Q7.94 -6.55 7.94 -5.24V0H6.28V-4.93Q6.28 -5.78 5.9 -6.23Q5.53 -6.67 4.79 -6.67Q3.96 -6.67 3.45 -6.11Q2.93 -5.54 2.93 -4.54V0Z" fill="#FFFFFF" fill-opacity="0.65" transform="translate(442.4, 30) scale(0.933333)"/><path d="M3.78 0.25Q2.99 0.25 2.38 -0.07Q1.78 -0.39 1.44 -0.96Q1.09 -1.52 1.09 -2.26V-2.36Q1.09 -3.57 1.92 -4.29Q2.75 -5.01 4.12 -5.01Q4.73 -5.01 5.26 -4.88Q5.79 -4.75 6.21 -4.51V-3.38Q5.48 -3.84 4.48 -3.84Q3.69 -3.84 3.24 -3.47Q2.78 -3.1 2.78 -2.44V-2.35Q2.78 -1.73 3.17 -1.39Q3.56 -1.04 4.24 -1.04Q4.79 -1.04 5.19 -1.32Q5.6 -1.59 5.83 -2.08Q6.07 -2.57 6.07 -3.19V-5.06Q6.07 -5.86 5.65 -6.3Q5.24 -6.73 4.42 -6.73Q3.32 -6.73 2.46 -5.88L1.51 -6.89Q2.66 -8.11 4.52 -8.11Q6.04 -8.11 6.87 -7.31Q7.69 -6.52 7.69 -5.12V0H6.13V-1.09H6.07Q5.72 -0.46 5.14 -0.11Q4.56 0.25 3.78 0.25Z" fill="#FFFFFF" fill-opacity="0.65" transform="translate(450.8, 30) scale(0.933333)"/><path d="M5.89 0.25Q4.55 0.25 3.79 -0.52Q3.03 -1.29 3.03 -2.65V-10.95H4.69V-2.8Q4.69 -1.28 6.01 -1.28Q6.39 -1.28 6.71 -1.42Q7.02 -1.57 7.37 -1.89L8.29 -0.67Q7.79 -0.2 7.2 0.02Q6.61 0.25 5.89 0.25ZM0.76 -9.58V-10.95H4.08V-9.58Z" fill="#FFFFFF" fill-opacity="0.65" transform="translate(459.2, 30) scale(0.933333)"/>
<use href="#g0" x="38" y="79" fill="#f7b500"/>
<use href="#g1" x="47" y="79" fill="#f7b500"/>
<use href="#g2" x="56" y="79" fill="#f7b500"/>
<use href="#g3" x="65" y="79" fill="#f7b500"/>
<use href="#g4" x="74" y="79" fill="#f7b500"/>
<use href="#g5" x="83" y="79" fill="#f7b500"/>
<use href="#g6" x="101" y="79" fill="#f7b500"/>
<use href="#g7" x="110" y="79" fill="#f7b500"/>
<use href="#g8" x="119" y="79" fill="#f7b500"/>
<use href="#g9" x="128" y="79" fill="#f7b500"/>
<use href="#g7" x="137" y="79" fill="#f7b500"/>
<use href="#g8" x="146" y="79" fill="#f7b500"/>
<use href="#g10" x="155" y="79" fill="#f7b500"/>
<use href="#g11" x="173" y="79" fill="#ffffff"/>
<use href="#g12" x="182" y="79" fill="#f7b500"/>
<use href="#g13" x="191" y="79" fill="#f7b500"/>
<use href="#g14" x="200" y="79" fill="#ffffff"/>
<use href="#g15" x="218" y="79" fill="#ffffff"/>
<use href="#g6" x="227" y="79" fill="#ffffff"/>
<use href="#g7" x="236" y="79" fill="#ffffff"/>
<use href="#g16" x="245" y="79" fill="#ffffff"/>
<use href="#g17" x="254" y="79" fill="#ffffff"/>
<use href="#g18" x="263" y="79" fill="#ffffff"/>
<use href="#g8" x="272" y="79" fill="#ffffff"/>
<use href="#g19" x="281" y="79" fill="#ffffff"/>
<use href="#g20" x="290" y="79" fill="#ffffff"/>
<use href="#g17" x="299" y="79" fill="#ffffff"/>
<use href="#g10" x="308" y="79" fill="#ffffff"/>
<use href="#g21" x="317" y="79" fill="#ffffff"/>
<use href="#g22" x="326" y="79" fill="#ffffff"/>
<use href="#g23" x="335" y="79" fill="#ffffff"/>
<use href="#g10" x="344" y="79" fill="#ffffff"/>
<use href="#g19" x="353" y="79" fill="#ffffff"/>
<use href="#g18" x="362" y="79" fill="#ffffff"/>
<use href="#g20" x="371" y="79" fill="#ffffff"/>
<use href="#g21" x="380" y="79" fill="#ffffff"/>
<use href="#g22" x="389" y="79" fill="#ffffff"/>
<use href="#g24" x="398" y="79" fill="#ffffff"/>
<use href="#g8" x="407" y="79" fill="#ffffff"/>
<use href="#g10" x="416" y="79" fill="#ffffff"/>
<use href="#g8" x="425" y="79" fill="#ffffff"/>
<use href="#g25" x="434" y="79" fill="#ffffff"/>
<use href="#g26" x="443" y="79" fill="#ffffff"/>
<use href="#g27" x="461" y="79" fill="#ffffff"/>
<use href="#g27" x="470" y="79" fill="#ffffff"/>
<use href="#g27" x="479" y="79" fill="#ffffff"/>
<use href="#g28" x="38" y="115" fill="#ffffff"/>
<use href="#g7" x="47" y="115" fill="#ffffff"/>
<use href="#g16" x="56" y="115" fill="#ffffff"/>
<use href="#g17" x="65" y="115" fill="#ffffff"/>
<use href="#g18" x="74" y="115" fill="#ffffff"/>
<use href="#g8" x="83" y="115" fill="#ffffff"/>
<use href="#g19" x="92" y="115" fill="#ffffff"/>
<use href="#g23" x="110" y="115" fill="#ffffff"/>
<use href="#g7" x="119" y="115" fill="#ffffff"/>
<use href="#g6" x="128" y="115" fill="#ffffff"/>
<use href="#g29" x="137" y="115" fill="#ffffff"/>
<use href="#g30" x="146" y="115" fill="#ffffff"/>
<use href="#g18" x="155" y="115" fill="#ffffff"/>
<use href="#g16" x="164" y="115" fill="#ffffff"/>
<use href="#g19" x="173" y="115" fill="#ffffff"/>
<use href="#g31" x="182" y="115" fill="#ffffff"/>
<use href="#g19" x="200" y="115" fill="#ffffff"/>
<use href="#g7" x="209" y="115" fill="#ffffff"/>
<use href="#g27" x="227" y="115" fill="#ffffff"/>
<use href="#g6" x="236" y="115" fill="#ffffff"/>
<use href="#g7" x="245" y="115" fill="#ffffff"/>
<use href="#g8" x="254" y="115" fill="#ffffff"/>
<use href="#g9" x="263" y="115" fill="#ffffff"/>
<use href="#g29" x="272" y="115" fill="#ffffff"/>
<use href="#g31" x="281" y="115" fill="#ffffff"/>
<use href="#g10" x="299" y="115" fill="#ffffff"/>
<use href="#g8" x="308" y="115" fill="#ffffff"/>
<use href="#g6" x="317" y="115" fill="#ffffff"/>
<use href="#g13" x="326" y="115" fill="#ffffff"/>
<use href="#g22" x="335" y="115" fill="#ffffff"/>
<use href="#g17" x="344" y="115" fill="#ffffff"/>
<use href="#g18" x="353" y="115" fill="#ffffff"/>
<use href="#g31" x="362" y="115" fill="#ffffff"/>
<use href="#g21" x="380" y="115" fill="#ffffff"/>
<use href="#g7" x="389" y="115" fill="#ffffff"/>
<use href="#g6" x="398" y="115" fill="#ffffff"/>
<use href="#g10" x="407" y="115" fill="#ffffff"/>
<use href="#g21" x="416" y="115" fill="#ffffff"/>
<use href="#g21" x="425" y="115" fill="#ffffff"/>
<use href="#g25" x="434" y="115" fill="#ffffff"/>
<use href="#g20" x="443" y="115" fill="#ffffff"/>
<use href="#g29" x="461" y="115" fill="#ffffff"/>
<use href="#g31" x="470" y="115" fill="#ffffff"/>
<use href="#g22" x="479" y="115" fill="#ffffff"/>
<use href="#g16" x="488" y="115" fill="#ffffff"/>
<use href="#g32" x="497" y="115" fill="#ffffff"/>
<use href="#g19" x="515" y="115" fill="#ffffff"/>
<use href="#g13" x="524" y="115" fill="#ffffff"/>
<use href="#g18" x="533" y="115" fill="#ffffff"/>
<use href="#g31" x="551" y="115" fill="#ffffff"/>
<use href="#g10" x="560" y="115" fill="#ffffff"/>
<use href="#g30" x="569" y="115" fill="#ffffff"/>
<use href="#g18" x="578" y="115" fill="#ffffff"/>
<use href="#g9" x="596" y="115" fill="#ffffff"/>
<use href="#g22" x="605" y="115" fill="#ffffff"/>
<use href="#g9" x="614" y="115" fill="#ffffff"/>
<use href="#g18" x="623" y="115" fill="#ffffff"/>
<use href="#g21" x="632" y="115" fill="#ffffff"/>
<use href="#g22" x="641" y="115" fill="#ffffff"/>
<use href="#g16" x="650" y="115" fill="#ffffff"/>
<use href="#g18" x="659" y="115" fill="#ffffff"/>
<use href="#g10" x="677" y="115" fill="#ffffff"/>
<use href="#g31" x="686" y="115" fill="#ffffff"/>
<use href="#g19" x="704" y="115" fill="#ffffff"/>
<use href="#g13" x="713" y="115" fill="#ffffff"/>
<use href="#g18" x="722" y="115" fill="#ffffff"/>
<use href="#g6" x="740" y="115" fill="#ffffff"/>
<use href="#g7" x="749" y="115" fill="#ffffff"/>
<use href="#g8" x="758" y="115" fill="#ffffff"/>
<use href="#g9" x="767" y="115" fill="#ffffff"/>
<use href="#g7" x="776" y="115" fill="#ffffff"/>
<use href="#g8" x="785" y="115" fill="#ffffff"/>
<use href="#g10" x="794" y="115" fill="#ffffff"/>
<use href="#g12" x="803" y="115" fill="#ffffff"/>
<use href="#g10" x="38" y="133" fill="#ffffff"/>
<use href="#g9" x="47" y="133" fill="#ffffff"/>
<use href="#g22" x="56" y="133" fill="#ffffff"/>
<use href="#g33" x="74" y="133" fill="#ffffff"/>
<use href="#g6" x="83" y="133" fill="#ffffff"/>
<use href="#g7" x="92" y="133" fill="#ffffff"/>
<use href="#g16" x="101" y="133" fill="#ffffff"/>
<use href="#g17" x="110" y="133" fill="#ffffff"/>
<use href="#g18" x="119" y="133" fill="#ffffff"/>
<use href="#g8" x="128" y="133" fill="#ffffff"/>
<use href="#g19" x="137" y="133" fill="#ffffff"/>
<use href="#g18" x="155" y="133" fill="#ffffff"/>
<use href="#g16" x="164" y="133" fill="#ffffff"/>
<use href="#g23" x="173" y="133" fill="#ffffff"/>
<use href="#g9" x="182" y="133" fill="#ffffff"/>
<use href="#g7" x="191" y="133" fill="#ffffff"/>
<use href="#g22" x="200" y="133" fill="#ffffff"/>
<use href="#g16" x="209" y="133" fill="#ffffff"/>
<use href="#g19" x="218" y="133" fill="#ffffff"/>
<use href="#g27" x="227" y="133" fill="#ffffff"/>
<use href="#g34" x="38" y="169" fill="#f7b500"/>
<use href="#g35" x="47" y="169" fill="#f7b500"/>
<use href="#g1" x="56" y="169" fill="#f7b500"/>
<use href="#g36" x="65" y="169" fill="#f7b500"/>
<use href="#g37" x="74" y="169" fill="#f7b500"/>
<use href="#g36" x="83" y="169" fill="#f7b500"/>
<use href="#g35" x="92" y="169" fill="#f7b500"/>
<use href="#g38" x="101" y="169" fill="#f7b500"/>
<use href="#g2" x="110" y="169" fill="#f7b500"/>
<use href="#g39" x="119" y="169" fill="#f7b500"/>
<use href="#g2" x="137" y="169" fill="#f7b500"/>
<use href="#g40" x="146" y="169" fill="#f7b500"/>
<use href="#g3" x="155" y="169" fill="#f7b500"/>
<use href="#g0" x="164" y="169" fill="#f7b500"/>
<use href="#g41" x="173" y="169" fill="#f7b500"/>
<use href="#g4" x="182" y="169" fill="#f7b500"/>
<use href="#g38" x="191" y="169" fill="#f7b500"/>
<use href="#g37" x="200" y="169" fill="#f7b500"/>
<use href="#g1" x="209" y="169" fill="#f7b500"/>
<use href="#g5" x="218" y="169" fill="#f7b500"/>
<use href="#g15" x="56" y="187" fill="#f7b500"/>
<use href="#g6" x="65" y="187" fill="#f7b500"/>
<use href="#g7" x="74" y="187" fill="#f7b500"/>
<use href="#g16" x="83" y="187" fill="#f7b500"/>
<use href="#g17" x="92" y="187" fill="#f7b500"/>
<use href="#g18" x="101" y="187" fill="#f7b500"/>
<use href="#g8" x="110" y="187" fill="#f7b500"/>
<use href="#g19" x="119" y="187" fill="#f7b500"/>
<use href="#g20" x="128" y="187" fill="#f7b500"/>
<use href="#g17" x="137" y="187" fill="#f7b500"/>
<use href="#g10" x="146" y="187" fill="#f7b500"/>
<use href="#g21" x="155" y="187" fill="#f7b500"/>
<use href="#g22" x="164" y="187" fill="#f7b500"/>
<use href="#g23" x="173" y="187" fill="#f7b500"/>
<use href="#g10" x="182" y="187" fill="#f7b500"/>
<use href="#g19" x="191" y="187" fill="#f7b500"/>
<use href="#g18" x="200" y="187" fill="#f7b500"/>
<use href="#g20" x="209" y="187" fill="#f7b500"/>
<use href="#g21" x="218" y="187" fill="#f7b500"/>
<use href="#g22" x="227" y="187" fill="#f7b500"/>
<use href="#g24" x="236" y="187" fill="#f7b500"/>
<use href="#g8" x="245" y="187" fill="#f7b500"/>
<use href="#g10" x="254" y="187" fill="#f7b500"/>
<use href="#g8" x="263" y="187" fill="#f7b500"/>
<use href="#g25" x="272" y="187" fill="#f7b500"/>
<use href="#g26" x="281" y="187" fill="#f7b500"/>
<use href="#g6" x="74" y="205" fill="#ffffff"/>
<use href="#g7" x="83" y="205" fill="#ffffff"/>
<use href="#g16" x="92" y="205" fill="#ffffff"/>
<use href="#g17" x="101" y="205" fill="#ffffff"/>
<use href="#g18" x="110" y="205" fill="#ffffff"/>
<use href="#g8" x="119" y="205" fill="#ffffff"/>
<use href="#g19" x="128" y="205" fill="#ffffff"/>
<use href="#g28" x="254" y="205" fill="#ffffff"/>
<use href="#g7" x="263" y="205" fill="#ffffff"/>
<use href="#g16" x="272" y="205" fill="#ffffff"/>
<use href="#g17" x="281" y="205" fill="#ffffff"/>
<use href="#g18" x="290" y="205" fill="#ffffff"/>
<use href="#g8" x="299" y="205" fill="#ffffff"/>
<use href="#g19" x="308" y="205" fill="#ffffff"/>
<use href="#g10" x="326" y="205" fill="#ffffff"/>
<use href="#g31" x="344" y="205" fill="#ffffff"/>
<use href="#g7" x="353" y="205" fill="#ffffff"/>
<use href="#g29" x="362" y="205" fill="#ffffff"/>
<use href="#g8" x="371" y="205" fill="#ffffff"/>
<use href="#g6" x="380" y="205" fill="#ffffff"/>
<use href="#g18" x="389" y="205" fill="#ffffff"/>
<use href="#g23" x="407" y="205" fill="#ffffff"/>
<use href="#g7" x="416" y="205" fill="#ffffff"/>
<use href="#g6" x="425" y="205" fill="#ffffff"/>
<use href="#g29" x="434" y="205" fill="#ffffff"/>
<use href="#g30" x="443" y="205" fill="#ffffff"/>
<use href="#g18" x="452" y="205" fill="#ffffff"/>
<use href="#g16" x="461" y="205" fill="#ffffff"/>
<use href="#g19" x="470" y="205" fill="#ffffff"/>
<use href="#g22" x="488" y="205" fill="#ffffff"/>
<use href="#g16" x="497" y="205" fill="#ffffff"/>
<use href="#g19" x="506" y="205" fill="#ffffff"/>
<use href="#g7" x="515" y="205" fill="#ffffff"/>
<use href="#g10" x="533" y="205" fill="#ffffff"/>
<use href="#g27" x="551" y="205" fill="#ffffff"/>
<use href="#g6" x="560" y="205" fill="#ffffff"/>
<use href="#g7" x="569" y="205" fill="#ffffff"/>
<use href="#g8" x="578" y="205" fill="#ffffff"/>
<use href="#g9" x="587" y="205" fill="#ffffff"/>
<use href="#g29" x="596" y="205" fill="#ffffff"/>
<use href="#g31" x="605" y="205" fill="#ffffff"/>
<use href="#g10" x="623" y="205" fill="#ffffff"/>
<use href="#g8" x="632" y="205" fill="#ffffff"/>
<use href="#g6" x="641" y="205" fill="#ffffff"/>
<use href="#g13" x="650" y="205" fill="#ffffff"/>
<use href="#g22" x="659" y="205" fill="#ffffff"/>
<use href="#g17" x="668" y="205" fill="#ffffff"/>
<use href="#g18" x="677" y="205" fill="#ffffff"/>
<use href="#g27" x="686" y="205" fill="#ffffff"/>
<use href="#g17" x="74" y="223" fill="#ffffff"/>
<use href="#g10" x="83" y="223" fill="#ffffff"/>
<use href="#g21" x="92" y="223" fill="#ffffff"/>
<use href="#g22" x="101" y="223" fill="#ffffff"/>
<use href="#g23" x="110" y="223" fill="#ffffff"/>
<use href="#g10" x="119" y="223" fill="#ffffff"/>
<use href="#g19" x="128" y="223" fill="#ffffff"/>
<use href="#g18" x="137" y="223" fill="#ffffff"/>
<use href="#g42" x="254" y="223" fill="#ffffff"/>
<use href="#g29" x="263" y="223" fill="#ffffff"/>
<use href="#g16" x="272" y="223" fill="#ffffff"/>
<use href="#g19" x="290" y="223" fill="#ffffff"/>
<use href="#g13" x="299" y="223" fill="#ffffff"/>
<use href="#g18" x="308" y="223" fill="#ffffff"/>
<use href="#g6" x="326" y="223" fill="#ffffff"/>
<use href="#g7" x="335" y="223" fill="#ffffff"/>
<use href="#g8" x="344" y="223" fill="#ffffff"/>
<use href="#g9" x="353" y="223" fill="#ffffff"/>
<use href="#g29" x="362" y="223" fill="#ffffff"/>
<use href="#g31" x="371" y="223" fill="#ffffff"/>
<use href="#g22" x="389" y="223" fill="#ffffff"/>
<use href="#g16" x="398" y="223" fill="#ffffff"/>
<use href="#g19" x="407" y="223" fill="#ffffff"/>
<use href="#g18" x="416" y="223" fill="#ffffff"/>
<use href="#g32" x="425" y="223" fill="#ffffff"/>
<use href="#g8" x="434" y="223" fill="#ffffff"/>
<use href="#g22" x="443" y="223" fill="#ffffff"/>
<use href="#g19" x="452" y="223" fill="#ffffff"/>
<use href="#g25" x="461" y="223" fill="#ffffff"/>
<use href="#g6" x="479" y="223" fill="#ffffff"/>
<use href="#g13" x="488" y="223" fill="#ffffff"/>
<use href="#g18" x="497" y="223" fill="#ffffff"/>
<use href="#g6" x="506" y="223" fill="#ffffff"/>
<use href="#g43" x="515" y="223" fill="#ffffff"/>
<use href="#g31" x="524" y="223" fill="#ffffff"/>
<use href="#g7" x="542" y="223" fill="#ffffff"/>
<use href="#g17" x="551" y="223" fill="#ffffff"/>
<use href="#g18" x="560" y="223" fill="#ffffff"/>
<use href="#g8" x="569" y="223" fill="#ffffff"/>
<use href="#g10" x="587" y="223" fill="#ffffff"/>
<use href="#g27" x="605" y="223" fill="#ffffff"/>
<use href="#g6" x="614" y="223" fill="#ffffff"/>
<use href="#g7" x="623" y="223" fill="#ffffff"/>
<use href="#g8" x="632" y="223" fill="#ffffff"/>
<use href="#g9" x="641" y="223" fill="#ffffff"/>
<use href="#g29" x="650" y="223" fill="#ffffff"/>
<use href="#g31" x="659" y="223" fill="#ffffff"/>
<use href="#g44" x="677" y="223" fill="#ffffff"/>
<use href="#g22" x="686" y="223" fill="#ffffff"/>
<use href="#g21" x="695" y="223" fill="#ffffff"/>
<use href="#g18" x="704" y="223" fill="#ffffff"/>
<use href="#g27" x="713" y="223" fill="#ffffff"/>
<use href="#g21" x="74" y="241" fill="#ffffff"/>
<use href="#g22" x="83" y="241" fill="#ffffff"/>
<use href="#g24" x="92" y="241" fill="#ffffff"/>
<use href="#g8" x="101" y="241" fill="#ffffff"/>
<use href="#g10" x="110" y="241" fill="#ffffff"/>
<use href="#g8" x="119" y="241" fill="#ffffff"/>
<use href="#g25" x="128" y="241" fill="#ffffff"/>
<use href="#g45" x="254" y="241" fill="#ffffff"/>
<use href="#g10" x="263" y="241" fill="#ffffff"/>
<use href="#g16" x="272" y="241" fill="#ffffff"/>
<use href="#g10" x="281" y="241" fill="#ffffff"/>
<use href="#g32" x="290" y="241" fill="#ffffff"/>
<use href="#g18" x="299" y="241" fill="#ffffff"/>
<use href="#g31" x="317" y="241" fill="#ffffff"/>
<use href="#g19" x="326" y="241" fill="#ffffff"/>
<use href="#g7" x="335" y="241" fill="#ffffff"/>
<use href="#g8" x="344" y="241" fill="#ffffff"/>
<use href="#g18" x="353" y="241" fill="#ffffff"/>
<use href="#g23" x="362" y="241" fill="#ffffff"/>
<use href="#g10" x="380" y="241" fill="#ffffff"/>
<use href="#g8" x="389" y="241" fill="#ffffff"/>
<use href="#g6" x="398" y="241" fill="#ffffff"/>
<use href="#g13" x="407" y="241" fill="#ffffff"/>
<use href="#g22" x="416" y="241" fill="#ffffff"/>
<use href="#g17" x="425" y="241" fill="#ffffff"/>
<use href="#g18" x="434" y="241" fill="#ffffff"/>
<use href="#g31" x="443" y="241" fill="#ffffff"/>
<use href="#g7" x="461" y="241" fill="#ffffff"/>
<use href="#g16" x="470" y="241" fill="#ffffff"/>
<use href="#g19" x="488" y="241" fill="#ffffff"/>
<use href="#g13" x="497" y="241" fill="#ffffff"/>
<use href="#g18" x="506" y="241" fill="#ffffff"/>
<use href="#g6" x="524" y="241" fill="#ffffff"/>
<use href="#g7" x="533" y="241" fill="#ffffff"/>
<use href="#g16" x="542" y="241" fill="#ffffff"/>
<use href="#g44" x="551" y="241" fill="#ffffff"/>
<use href="#g22" x="560" y="241" fill="#ffffff"/>
<use href="#g32" x="569" y="241" fill="#ffffff"/>
<use href="#g29" x="578" y="241" fill="#ffffff"/>
<use href="#g8" x="587" y="241" fill="#ffffff"/>
<use href="#g18" x="596" y="241" fill="#ffffff"/>
<use href="#g23" x="605" y="241" fill="#ffffff"/>
<use href="#g24" x="623" y="241" fill="#ffffff"/>
<use href="#g10" x="632" y="241" fill="#ffffff"/>
<use href="#g6" x="641" y="241" fill="#ffffff"/>
<use href="#g43" x="650" y="241" fill="#ffffff"/>
<use href="#g18" x="659" y="241" fill="#ffffff"/>
<use href="#g16" x="668" y="241" fill="#ffffff"/>
<use href="#g23" x="677" y="241" fill="#ffffff"/>
<use href="#g27" x="686" y="241" fill="#ffffff"/>
<use href="#g35" x="38" y="277" fill="#f7b500"/>
<use href="#g34" x="47" y="277" fill="#f7b500"/>
<use href="#g37" x="56" y="277" fill="#f7b500"/>
<use href="#g36" x="65" y="277" fill="#f7b500"/>
<use href="#g35" x="74" y="277" fill="#f7b500"/>
<use href="#g38" x="83" y="277" fill="#f7b500"/>
<use href="#g1" x="92" y="277" fill="#f7b500"/>
<use href="#g5" x="101" y="277" fill="#f7b500"/>
<use href="#g12" x="56" y="295" fill="#f7b500"/>
<use href="#g13" x="65" y="295" fill="#f7b500"/>
<use href="#g20" x="74" y="295" fill="#ffffff"/>
<use href="#g12" x="92" y="295" fill="#f7b500"/>
<use href="#g12" x="101" y="295" fill="#f7b500"/>
<use href="#g13" x="110" y="295" fill="#f7b500"/>
<use href="#g18" x="119" y="295" fill="#f7b500"/>
<use href="#g21" x="128" y="295" fill="#f7b500"/>
<use href="#g9" x="137" y="295" fill="#f7b500"/>
<use href="#g31" x="254" y="295" fill="#ffffff"/>
<use href="#g13" x="263" y="295" fill="#ffffff"/>
<use href="#g7" x="272" y="295" fill="#ffffff"/>
<use href="#g46" x="281" y="295" fill="#ffffff"/>
<use href="#g19" x="299" y="295" fill="#ffffff"/>
<use href="#g13" x="308" y="295" fill="#ffffff"/>
<use href="#g22" x="317" y="295" fill="#ffffff"/>
<use href="#g31" x="326" y="295" fill="#ffffff"/>
<use href="#g13" x="344" y="295" fill="#ffffff"/>
<use href="#g18" x="353" y="295" fill="#ffffff"/>
<use href="#g21" x="362" y="295" fill="#ffffff"/>
<use href="#g9" x="371" y="295" fill="#ffffff"/>
<use href="#g30" x="389" y="295" fill="#ffffff"/>
<use href="#g18" x="398" y="295" fill="#ffffff"/>
<use href="#g31" x="407" y="295" fill="#ffffff"/>
<use href="#g31" x="416" y="295" fill="#ffffff"/>
<use href="#g10" x="425" y="295" fill="#ffffff"/>
<use href="#g32" x="434" y="295" fill="#ffffff"/>
<use href="#g18" x="443" y="295" fill="#ffffff"/>
<use href="#g10" x="461" y="295" fill="#ffffff"/>
<use href="#g16" x="470" y="295" fill="#ffffff"/>
<use href="#g23" x="479" y="295" fill="#ffffff"/>
<use href="#g18" x="497" y="295" fill="#ffffff"/>
<use href="#g47" x="506" y="295" fill="#ffffff"/>
<use href="#g22" x="515" y="295" fill="#ffffff"/>
<use href="#g19" x="524" y="295" fill="#ffffff"/>
</g>
</svg>
